<?xml version="1.0" encoding="UTF-8" standalone="no"?>
<!DOCTYPE svg PUBLIC "-//W3C//DTD SVG 1.1//EN"
 "http://www.w3.org/Graphics/SVG/1.1/DTD/svg11.dtd">
<!-- Generated by graphviz version 2.47.0 (20210316.0004)
 -->
<!-- Title: dependencies Pages: 1 -->
<svg width="769pt" height="211pt"
 viewBox="0.00 0.00 769.00 211.00" xmlns="http://www.w3.org/2000/svg" xmlns:xlink="http://www.w3.org/1999/xlink">
<g id="graph0" class="graph" transform="scale(1 1) rotate(0) translate(4 207)">
<title>dependencies</title>
<polygon fill="white" stroke="transparent" points="-4,4 -4,-207 765,-207 765,4 -4,4"/>
<text text-anchor="start" x="359.51" y="-42.4" font-family="Times-12" font-weight="bold" font-size="14.00">Legend</text>
<polygon fill="#ffffb3" stroke="transparent" points="146.5,-10 146.5,-30 166.5,-30 166.5,-10 146.5,-10"/>
<text text-anchor="start" x="170.13" y="-15.4" font-family="Times-12" font-size="14.00"> &#160;Declarations</text>
<polygon fill="#8dd3c7" stroke="transparent" points="259.5,-10 259.5,-30 279.5,-30 279.5,-10 259.5,-10"/>
<text text-anchor="start" x="283.23" y="-15.4" font-family="Times-12" font-size="14.00"> &#160;Module</text>
<polygon fill="#80b1d3" stroke="transparent" points="345.5,-10 345.5,-30 365.5,-30 365.5,-10 345.5,-10"/>
<text text-anchor="start" x="369.28" y="-15.4" font-family="Times-12" font-size="14.00"> &#160;Bootstrap</text>
<polygon fill="#fdb462" stroke="transparent" points="442.5,-10 442.5,-30 462.5,-30 462.5,-10 442.5,-10"/>
<text text-anchor="start" x="466.17" y="-15.4" font-family="Times-12" font-size="14.00"> &#160;Providers</text>
<polygon fill="#fb8072" stroke="transparent" points="538.5,-10 538.5,-30 558.5,-30 558.5,-10 538.5,-10"/>
<text text-anchor="start" x="562.23" y="-15.4" font-family="Times-12" font-size="14.00"> &#160;Exports</text>
<g id="clust1" class="cluster">
<title>cluster_AppModule</title>
<polygon fill="none" stroke="black" stroke-dasharray="1,5" points="8,-70 8,-195 753,-195 753,-70 8,-70"/>
</g>
<g id="clust3" class="cluster">
<title>cluster_AppModule_imports</title>
<polygon fill="none" stroke="black" points="16,-78 16,-130 745,-130 745,-78 16,-78"/>
</g>
<!-- AuthModule -->
<g id="node1" class="node">
<title>AuthModule</title>
<polygon fill="#8dd3c7" stroke="black" points="736.55,-122 733.55,-126 712.55,-126 709.55,-122 649.45,-122 649.45,-86 736.55,-86 736.55,-122"/>
<text text-anchor="middle" x="693" y="-99.8" font-family="Times,serif" font-size="14.00">AuthModule</text>
</g>
<!-- AppModule -->
<g id="node7" class="node">
<title>AppModule</title>
<polygon fill="#8dd3c7" stroke="black" points="435.66,-187 432.66,-191 411.66,-191 408.66,-187 352.34,-187 352.34,-151 435.66,-151 435.66,-187"/>
<text text-anchor="middle" x="394" y="-164.8" font-family="Times,serif" font-size="14.00">AppModule</text>
</g>
<!-- AuthModule&#45;&gt;AppModule -->
<g id="edge1" class="edge">
<title>AuthModule&#45;&gt;AppModule</title>
<path fill="none" stroke="black" d="M693,-122.28C693,-143.32 693,-175 693,-175 693,-175 445.89,-175 445.89,-175"/>
<polygon fill="black" stroke="black" points="445.89,-171.5 435.89,-175 445.89,-178.5 445.89,-171.5"/>
</g>
<!-- DatabaseModule -->
<g id="node2" class="node">
<title>DatabaseModule</title>
<polygon fill="#8dd3c7" stroke="black" points="631.35,-122 628.35,-126 607.35,-126 604.35,-122 520.65,-122 520.65,-86 631.35,-86 631.35,-122"/>
<text text-anchor="middle" x="576" y="-99.8" font-family="Times,serif" font-size="14.00">DatabaseModule</text>
</g>
<!-- DatabaseModule&#45;&gt;AppModule -->
<g id="edge2" class="edge">
<title>DatabaseModule&#45;&gt;AppModule</title>
<path fill="none" stroke="black" d="M576,-122.02C576,-139.37 576,-163 576,-163 576,-163 445.75,-163 445.75,-163"/>
<polygon fill="black" stroke="black" points="445.75,-159.5 435.75,-163 445.75,-166.5 445.75,-159.5"/>
</g>
<!-- HealthModule -->
<g id="node3" class="node">
<title>HealthModule</title>
<polygon fill="#8dd3c7" stroke="black" points="502.37,-122 499.37,-126 478.37,-126 475.37,-122 405.63,-122 405.63,-86 502.37,-86 502.37,-122"/>
<text text-anchor="middle" x="454" y="-99.8" font-family="Times,serif" font-size="14.00">HealthModule</text>
</g>
<!-- HealthModule&#45;&gt;AppModule -->
<g id="edge3" class="edge">
<title>HealthModule&#45;&gt;AppModule</title>
<path fill="none" stroke="black" d="M420.7,-122.11C420.7,-122.11 420.7,-140.99 420.7,-140.99"/>
<polygon fill="black" stroke="black" points="417.2,-140.99 420.7,-150.99 424.2,-140.99 417.2,-140.99"/>
</g>
<!-- MedicosModule -->
<g id="node4" class="node">
<title>MedicosModule</title>
<polygon fill="#8dd3c7" stroke="black" points="387.76,-122 384.76,-126 363.76,-126 360.76,-122 280.24,-122 280.24,-86 387.76,-86 387.76,-122"/>
<text text-anchor="middle" x="334" y="-99.8" font-family="Times,serif" font-size="14.00">MedicosModule</text>
</g>
<!-- MedicosModule&#45;&gt;AppModule -->
<g id="edge4" class="edge">
<title>MedicosModule&#45;&gt;AppModule</title>
<path fill="none" stroke="black" d="M370.03,-122.11C370.03,-122.11 370.03,-140.99 370.03,-140.99"/>
<polygon fill="black" stroke="black" points="366.53,-140.99 370.03,-150.99 373.53,-140.99 366.53,-140.99"/>
</g>
<!-- ReservasModule -->
<g id="node5" class="node">
<title>ReservasModule</title>
<polygon fill="#8dd3c7" stroke="black" points="262.08,-122 259.08,-126 238.08,-126 235.08,-122 151.92,-122 151.92,-86 262.08,-86 262.08,-122"/>
<text text-anchor="middle" x="207" y="-99.8" font-family="Times,serif" font-size="14.00">ReservasModule</text>
</g>
<!-- ReservasModule&#45;&gt;AppModule -->
<g id="edge5" class="edge">
<title>ReservasModule&#45;&gt;AppModule</title>
<path fill="none" stroke="black" d="M207,-122.02C207,-139.37 207,-163 207,-163 207,-163 342.03,-163 342.03,-163"/>
<polygon fill="black" stroke="black" points="342.03,-166.5 352.03,-163 342.03,-159.5 342.03,-166.5"/>
</g>
<!-- UsuariosModule -->
<g id="node6" class="node">
<title>UsuariosModule</title>
<polygon fill="#8dd3c7" stroke="black" points="133.81,-122 130.81,-126 109.81,-126 106.81,-122 24.19,-122 24.19,-86 133.81,-86 133.81,-122"/>
<text text-anchor="middle" x="79" y="-99.8" font-family="Times,serif" font-size="14.00">UsuariosModule</text>
</g>
<!-- UsuariosModule&#45;&gt;AppModule -->
<g id="edge6" class="edge">
<title>UsuariosModule&#45;&gt;AppModule</title>
<path fill="none" stroke="black" d="M79,-122.28C79,-143.32 79,-175 79,-175 79,-175 342.17,-175 342.17,-175"/>
<polygon fill="black" stroke="black" points="342.17,-178.5 352.17,-175 342.17,-171.5 342.17,-178.5"/>
</g>
</g>
</svg>
